<?xml version="1.0" encoding="UTF-8" standalone="no"?>
<!DOCTYPE svg PUBLIC "-//W3C//DTD SVG 20010904//EN"
              "http://www.w3.org/TR/2001/REC-SVG-20010904/DTD/svg10.dtd">

<svg xmlns="http://www.w3.org/2000/svg"
     width="200" height="200"
     viewBox="0 0 1228 1352">
  <path id="Selection #1"
        fill="#2cb3e7" stroke="#133d6a" stroke-width="5"
        d="M 758 841 L 495 841 C 495.27 840.99 486.2 840.15 480 837.54 C 468.59 832.74 456.82 819.63 448 811.01 C 212.99 571.75 173.04 537.13 152.2 503 C 136.12 476.65 127.58 454.83 120.13 425 C 117.4 414.08 113.13 391.88 113 381 C 113 381 112 361 112 361 C 111.98 347.55 112.62 334.35 114.28 321 C 123.41 247.76 160.38 175.94 221 132.43 C 241.21 117.92 263.42 106.87 287 99 C 308.35 91.88 332.37 85.04 355 85 L 859 85 C 859 85 871 85.91 871 85.91 C 939.42 90.69 1004.72 130.11 1041.56 188 C 1063.52 222.49 1073.14 257.7 1077.17 298 C 1077.17 298 1079 322 1079 322 V 456 H 884 C 883.98 355.13 884.47 341.54 881.52 330 C 876.06 308.65 857.92 289.69 838 280.86 C 829.13 276.93 821.73 275.02 812 275 L 388 275 C 350.27 275.06 311.45 312.06 311 350 C 310.66 379.63 326.88 399.88 347 420 C 749.1 827.54 755.28 833.99 758 841 Z" />
  <path id="Selection #2"
        fill="#133d6a" stroke="black" stroke-width="1"
	d="M 481 391 L 718 391 C 1045.75 718.34 1058.87 732.68 1070.28 749 C 1092.95 781.44 1105.98 821.86 1110.16 861 C 1110.16 861 1112 881 1112 881 C 1112.61 933.6 1103.04 989.58 1077.14 1036 C 1070.35 1048.17 1062.41 1059.07 1053.79 1070 C 1035.65 1093.01 1018.57 1108.65 995 1125.85 C 987.93 1131.01 985.4 1132.4 979.02 1139 C 976.68 1141.42 973.63 1144.31 973.99 1148 C 974.38 1152.02 979.3 1157.22 982.01 1160 L 1083 1266 L 917.54 1266 C 917.54 1265.99 908.9 1265.17 903 1262.48 C 840.41 1201.53 838.17 1198.12 822 1190.69 C 813.67 1186.87 814.53 1186.02 805 1186 L 396 1186 C 396 1186 376 1185 376 1185 C 376 1185 365 1184.09 365 1184.09 C 344.44 1182.68 323.46 1179.4 304 1172.31 C 295.63 1169.25 292.99 1165.99 288 1163.98 C 288 1163.98 277 1160.84 277 1160.84 C 261.23 1151.03 267 1158 241 1142 C 221.53 1131.38 204.32 1113.81 191.83 1100 C 181.54 1088.62 171.56 1077.91 163.08 1065 C 134.92 1022.14 121.89 975.54 116.83 925 C 116.83 925 115 901 115 901 C 115 901 115 790 115 790 L 302 791 L 303 886 C 304.36 918.05 310.13 954.88 335.01 977.83 C 352.64 994.09 377.2 1001.96 401 1002 L 838 1002 C 868.41 1001.95 898.84 986.4 916.84 962 C 922.58 954.23 926.52 947.01 929.94 938 C 933.71 928.04 936.12 914.65 936 904 C 935.49 859.2 899.91 826.46 870.01 797.91 Z" />	
</svg>